<svg xmlns="http://www.w3.org/2000/svg" version="1.1" xmlns:xlink="http://www.w3.org/1999/xlink" xmlns:svgjs="http://svgjs.dev/svgjs" width="2000" height="1500" viewBox="0 0 2000 1500"><rect width="2000" height="1500" fill="#ffffff"></rect><g transform="matrix(0.75,0,0,0.75,249.090909090909,282.7536437246963)"><svg viewBox="0 0 396 247" data-background-color="#ffffff" preserveAspectRatio="xMidYMid meet" height="1247" width="2000" xmlns="http://www.w3.org/2000/svg" xmlns:xlink="http://www.w3.org/1999/xlink"><g id="tight-bounds" transform="matrix(1,0,0,1,0.2400000000000091,-0.09999999999999432)"><svg viewBox="0 0 395.52 247.2" height="247.2" width="395.52"><g><svg></svg></g><g><svg viewBox="0 0 395.52 247.2" height="247.2" width="395.52"><g transform="matrix(1,0,0,1,75.54432,90.7795548813825)"><svg viewBox="0 0 244.43135999999998 65.64089023723501" height="65.64089023723501" width="244.43135999999998"><g><svg viewBox="0 0 349.04944851718216 93.73558506356865" height="65.64089023723501" width="244.43135999999998"><g transform="matrix(1,0,0,1,0,12.954773333677004)"><svg viewBox="0 0 244.43135999999998 67.82603839621464" height="67.82603839621464" width="244.43135999999998"><g id="textblocktransform"><svg viewBox="0 0 244.43135999999998 67.82603839621464" height="67.82603839621464" width="244.43135999999998" id="textblock"><g><svg viewBox="0 0 244.43135999999998 46.097457825503355" height="46.097457825503355" width="244.43135999999998"><g transform="matrix(1,0,0,1,0,0)"><svg width="244.43135999999998" viewBox="1.22 -40.6 218.24 41.160000000000004" height="46.097457825503355" data-palette-color="#000000"><path d="M8.35-24.73L8.35-2.59 11.47-2.03 11.47 0 1.22 0 1.22-2.03 4.39-2.59 4.39-20.36 1.22-20.92 1.22-22.95 8.35-24.73ZM4.26-32.19Q3.86-32.62 3.61-33.15 3.37-33.69 3.37-34.22 3.37-34.74 3.61-35.27 3.86-35.79 4.25-36.23L4.25-36.23Q5.15-37.21 5.9-37.21 6.64-37.21 7.17-36.94 7.69-36.67 8.11-36.23L8.11-36.23Q9.01-35.23 9.01-34.46 9.01-33.69 8.75-33.15 8.5-32.62 8.11-32.18L8.11-32.18Q7.18-31.23 6.41-31.23 5.64-31.23 5.15-31.49 4.66-31.76 4.26-32.19ZM28.93-21.56L28.93-21.56Q25.19-21.56 21.43-18.97L21.43-18.97 21.43-2.59 24.53-2.03 24.53 0 14.28 0 14.28-2.03 17.45-2.59 17.45-20.36 14.28-20.92 14.28-22.95 21.02-24.73 21.02-21.56Q25.95-24.73 30.17-24.73L30.17-24.73Q35.25-24.73 36.79-20.51L36.79-20.51Q37.3-19.09 37.3-17.19L37.3-17.19 37.3-2.59 40.4-2.03 40.4 0 30.17 0 30.17-2.03 33.32-2.59 33.32-16.72Q33.32-21.56 28.93-21.56ZM44.62-7.13L45.89-7.13Q45.89-2.03 52.14-2.03L52.14-2.03Q54.51-2.03 55.93-3.08L55.93-3.08Q57.22-4.03 57.22-5.47L57.22-5.47Q57.22-6.98 56.46-7.81L56.46-7.81Q54.98-9.45 52.16-10.42 49.34-11.4 47.93-12.29 46.53-13.18 45.72-14.16L45.72-14.16Q44.33-15.82 44.33-17.74 44.33-19.65 45.05-20.87 45.77-22.09 46.94-22.95L46.94-22.95Q49.43-24.73 52.7-24.73L52.7-24.73Q56.64-24.73 59.57-23L59.57-23 59-18.29 57.69-18.29Q57.69-22.12 52.58-22.12L52.58-22.12Q50.36-22.12 49.21-21.25 48.07-20.39 48.07-19.09L48.07-19.09Q48.07-16.24 54.44-13.92L54.44-13.92Q60.4-11.72 61.15-8.18L61.15-8.18Q61.35-7.18 61.35-5.8 61.35-4.42 60.46-3.13 59.57-1.83 58.22-1.03L58.22-1.03Q55.61 0.56 52.19 0.56L52.19 0.56Q48.85 0.56 45.94-0.73L45.94-0.73Q44.65-1.29 43.7-2.03L43.7-2.03 44.62-7.13ZM70.72-21.29L70.72-7.47Q70.72-2.59 74.68-2.59L74.68-2.59Q76.75-2.59 78.7-4.3L78.7-4.3 80.02-2.69Q77.95-0.98 76.19-0.21 74.43 0.56 73.09 0.56 71.75 0.56 70.49-0.02 69.23-0.61 68.4-1.71L68.4-1.71Q66.76-3.83 66.76-7.74L66.76-7.74 66.76-21.29 63.66-21.29 63.66-23.41 66.76-24.15 66.76-27.42 69.65-30.3 70.72-30.3 70.72-24.15 78.78-24.15 78.78-21.29 70.72-21.29ZM103.68-3.56L104.12-1.27Q100.55 0.56 98.96 0.56L98.96 0.56Q95.4 0.56 95.4-2.47L95.4-2.47 95.4-3.22Q95.06-2.71 93.53-1.73 92.01-0.76 91.15-0.37L91.15-0.37Q89.13 0.56 88.08 0.56 87.03 0.56 86.34 0.48 85.66 0.39 84.93 0.15 84.19-0.1 83.49-0.54 82.78-0.98 82.22-1.68L82.22-1.68Q80.97-3.25 80.97-5.76L80.97-5.76Q80.97-9.23 83.44-10.6L83.44-10.6Q85-11.5 86.75-11.72 88.49-11.94 89.93-12.06L89.93-12.06Q92.67-12.3 95.4-12.35L95.4-12.35 95.4-17.48Q95.4-19.6 94.86-20.31L94.86-20.31Q93.96-21.56 92.06-21.56L92.06-21.56Q87.81-21.56 83.71-18.8L83.71-18.8 82.29-20.92Q88-24.73 92.52-24.73L92.52-24.73Q96.45-24.73 98.09-22.56L98.09-22.56Q99.36-20.87 99.36-17.77L99.36-17.77 99.36-4.93Q99.36-3.13 100.04-2.88L100.04-2.88Q100.28-2.81 100.67-2.81L100.67-2.81Q101.65-2.81 103.68-3.56L103.68-3.56ZM95.4-5.47L95.4-10.3Q88.47-10.03 86.51-8.91L86.51-8.91Q85.02-8.06 85.02-6.15L85.02-6.15Q85.02-3.39 87.15-2.76L87.15-2.76Q87.73-2.59 88.58-2.59 89.42-2.59 90.54-2.93 91.66-3.27 92.62-3.76L92.62-3.76Q94.42-4.64 95.4-5.47L95.4-5.47ZM108.39-3.17L108.39-36.21 105.21-36.82 105.21-38.79 112.37-40.6 112.37-21.56Q114.76-23.24 116.97-23.99 119.18-24.73 121.17-24.73 123.16-24.73 125.06-23.82 126.97-22.9 128.28-21.29L128.28-21.29Q131.04-17.92 131.04-12.67L131.04-12.67Q131.04-7.23 127.8-3.52L127.8-3.52Q124.28 0.56 118.27 0.56L118.27 0.56Q114.42 0.56 111.02-1.29L111.02-1.29Q109.51-2.1 108.39-3.17L108.39-3.17ZM119.42-21.56L119.42-21.56Q116.13-21.56 112.37-19.04L112.37-19.04 112.37-5.1Q114.47-2.29 119.03-2.29L119.03-2.29Q122.55-2.29 124.74-4.98L124.74-4.98Q126.79-7.47 126.79-11.21L126.79-11.21Q126.79-18.09 122.77-20.65L122.77-20.65Q121.37-21.56 119.42-21.56ZM135.9-11.87L135.9-11.87Q135.9-14.67 136.86-17.09 137.83-19.51 139.49-21.19L139.49-21.19Q142.9-24.73 147.91-24.73L147.91-24.73Q153.72-24.73 156.99-21.29L156.99-21.29Q160.09-17.99 160.09-12.67L160.09-12.67Q160.09-6.74 156.58-3.03L156.58-3.03Q153.16 0.56 148.13 0.56L148.13 0.56Q142.39 0.56 139.05-2.98L139.05-2.98Q135.9-6.3 135.9-11.87ZM142.15-19.15Q141.17-17.9 140.67-16.21 140.17-14.53 140.17-12.56 140.17-10.6 140.62-8.73 141.07-6.86 142.03-5.42L142.03-5.42Q144.13-2.29 148.08-2.29L148.08-2.29Q151.79-2.29 153.84-4.74L153.84-4.74Q155.87-7.13 155.87-11.21L155.87-11.21Q155.87-18.43 151.74-20.92L151.74-20.92Q150.2-21.85 148.11-21.85 146.01-21.85 144.57-21.13 143.12-20.41 142.15-19.15ZM165.05-11.87L165.05-11.87Q165.05-14.67 166.01-17.09 166.97-19.51 168.63-21.19L168.63-21.19Q172.05-24.73 177.06-24.73L177.06-24.73Q182.87-24.73 186.14-21.29L186.14-21.29Q189.24-17.99 189.24-12.67L189.24-12.67Q189.24-6.74 185.72-3.03L185.72-3.03Q182.31 0.56 177.28 0.56L177.28 0.56Q171.54 0.56 168.2-2.98L168.2-2.98Q165.05-6.3 165.05-11.87ZM171.3-19.15Q170.32-17.9 169.82-16.21 169.32-14.53 169.32-12.56 169.32-10.6 169.77-8.73 170.22-6.86 171.17-5.42L171.17-5.42Q173.27-2.29 177.23-2.29L177.23-2.29Q180.94-2.29 182.99-4.74L182.99-4.74Q185.02-7.13 185.02-11.21L185.02-11.21Q185.02-18.43 180.89-20.92L180.89-20.92Q179.35-21.85 177.25-21.85 175.15-21.85 173.71-21.13 172.27-20.41 171.3-19.15ZM200.4-40.6L200.4-2.59 203.5-2.03 203.5 0 193.24 0 193.24-2.03 196.42-2.59 196.42-36.21 193.24-36.82 193.24-38.79 200.4-40.6ZM200.59-12.99L211.5-21.61 209.33-22.12 209.33-24.15 219.12-24.15 219.12-22.12 215.31-21.56 204.98-13.62 215.24-3.22 216.83-2.42 219.46-2.03 219.46 0 212.6 0 200.59-12.99Z" opacity="1" transform="matrix(1,0,0,1,0,0)" fill="#000000" class="wordmark-text-0" data-fill-palette-color="primary" id="text-0"></path></svg></g></svg></g><g transform="matrix(1,0,0,1,100.925708544,56.979961279116885)"><svg viewBox="0 0 143.50565145599998 10.846077117097748" height="10.846077117097748" width="143.50565145599998"><g transform="matrix(1,0,0,1,0,0)"><svg width="143.50565145599998" viewBox="1.37 -42.19 581.4 43.949999999999996" height="10.846077117097748" data-palette-color="#89939e"><path d="M32.79-26.61L32.79-26.61 31.35-25.66Q30.03-27.61 27.92-28.75 25.81-29.88 23.34-29.88L23.34-29.88Q19.34-29.88 16.5-27.05 13.67-24.22 13.67-20.21 13.67-16.21 16.5-13.38 19.34-10.55 23.34-10.55L23.34-10.55Q25.81-10.55 27.92-11.69 30.03-12.84 31.35-14.79L31.35-14.79 32.76-13.77Q31.2-11.47 28.71-10.13 26.22-8.79 23.34-8.79L23.34-8.79Q21.02-8.79 18.91-9.69 16.8-10.6 15.26-12.13 13.72-13.67 12.82-15.78 11.91-17.9 11.91-20.21 11.91-22.53 12.82-24.65 13.72-26.76 15.26-28.3 16.8-29.83 18.91-30.74 21.02-31.64 23.34-31.64L23.34-31.64Q26.25-31.64 28.74-30.29 31.23-28.93 32.79-26.61ZM35.69-28.61L35.69-28.61 34.23-27.66Q32.42-30.3 29.55-31.85 26.68-33.4 23.34-33.4L23.34-33.4Q19.75-33.4 16.72-31.63 13.7-29.86 11.93-26.83 10.16-23.8 10.16-20.21 10.16-16.63 11.93-13.6 13.7-10.57 16.72-8.8 19.75-7.03 23.34-7.03L23.34-7.03Q26.68-7.03 29.57-8.59 32.45-10.16 34.25-12.82L34.25-12.82 35.69-11.82Q33.64-8.79 30.38-7.03 27.12-5.27 23.34-5.27L23.34-5.27Q19.29-5.27 15.84-7.28 12.4-9.28 10.4-12.72 8.4-16.16 8.4-20.21 8.4-24.27 10.4-27.71 12.4-31.15 15.84-33.15 19.29-35.16 23.34-35.16L23.34-35.16Q27.12-35.16 30.38-33.4 33.64-31.64 35.69-28.61ZM38.62-30.57L38.62-30.57 37.16-29.61Q34.86-32.98 31.21-34.95 27.56-36.91 23.34-36.91L23.34-36.91Q19.95-36.91 16.85-35.6 13.75-34.28 11.51-32.04 9.28-29.81 7.96-26.71 6.64-23.61 6.64-20.21 6.64-16.82 7.96-13.72 9.28-10.62 11.51-8.39 13.75-6.15 16.85-4.83 19.95-3.52 23.34-3.52L23.34-3.52Q27.59-3.52 31.23-5.49 34.86-7.47 37.16-10.84L37.16-10.84 38.57-9.79Q36.04-6.08 32.02-3.92 28-1.76 23.34-1.76L23.34-1.76Q18.33-1.76 14.09-4.24 9.84-6.71 7.36-10.96 4.88-15.21 4.88-20.21 4.88-25.22 7.36-29.47 9.84-33.72 14.09-36.19 18.33-38.67 23.34-38.67L23.34-38.67Q28.03-38.67 32.06-36.49 36.08-34.3 38.62-30.57ZM41.5-32.57L41.5-32.57 40.04-31.62Q37.26-35.69 32.85-38.06 28.44-40.43 23.34-40.43L23.34-40.43Q19.24-40.43 15.49-38.83 11.74-37.23 9.03-34.52 6.32-31.81 4.72-28.06 3.13-24.32 3.13-20.21 3.13-16.11 4.72-12.37 6.32-8.62 9.03-5.91 11.74-3.2 15.49-1.6 19.24 0 23.34 0L23.34 0Q28.44 0 32.86-2.39 37.28-4.79 40.06-8.86L40.06-8.86 41.48-7.79Q38.45-3.39 33.67-0.82 28.88 1.76 23.34 1.76L23.34 1.76Q18.87 1.76 14.81 0.01 10.74-1.73 7.8-4.68 4.86-7.62 3.11-11.68 1.37-15.75 1.37-20.21 1.37-24.68 3.11-28.75 4.86-32.81 7.8-35.75 10.74-38.7 14.81-40.44 18.87-42.19 23.34-42.19L23.34-42.19Q28.91-42.19 33.69-39.6 38.48-37.01 41.5-32.57ZM58.31-22.55Q56.25-20.48 56.25-17.58 56.25-14.67 58.31-12.61 60.37-10.55 63.28-10.55 66.18-10.55 68.25-12.61 70.31-14.67 70.31-17.58 70.31-20.48 68.25-22.55 66.18-24.61 63.28-24.61 60.37-24.61 58.31-22.55ZM57.07-11.36Q54.49-13.94 54.49-17.58 54.49-21.22 57.07-23.79 59.64-26.37 63.28-26.37 66.92-26.37 69.49-23.79 72.07-21.22 72.07-17.58 72.07-13.94 69.49-11.36 66.92-8.79 63.28-8.79 59.64-8.79 57.07-11.36ZM55.82-25.02Q52.73-21.92 52.73-17.58 52.73-13.23 55.82-10.13 58.91-7.03 63.28-7.03 67.65-7.03 70.74-10.13 73.83-13.23 73.83-17.58 73.83-21.92 70.74-25.02 67.65-28.13 63.28-28.13 58.91-28.13 55.82-25.02ZM52.62-11.4Q50.97-14.23 50.97-17.58 50.97-20.92 52.62-23.75 54.27-26.59 57.1-28.23 59.93-29.88 63.28-29.88 66.62-29.88 69.46-28.23 72.29-26.59 73.94-23.75 75.58-20.92 75.58-17.58 75.58-14.23 73.94-11.4 72.29-8.57 69.46-6.92 66.62-5.27 63.28-5.27 59.93-5.27 57.1-6.92 54.27-8.57 52.62-11.4ZM50.33-23.03Q49.22-20.43 49.22-17.58 49.22-14.72 50.33-12.12 51.44-9.52 53.33-7.63 55.22-5.74 57.82-4.63 60.42-3.52 63.28-3.52 66.14-3.52 68.74-4.63 71.34-5.74 73.23-7.63 75.12-9.52 76.23-12.12 77.34-14.72 77.34-17.58 77.34-20.43 76.23-23.03 75.12-25.63 73.23-27.53 71.34-29.42 68.74-30.53 66.14-31.64 63.28-31.64 60.42-31.64 57.82-30.53 55.22-29.42 53.33-27.53 51.44-25.63 50.33-23.03ZM48.72-11.43Q47.46-14.36 47.46-17.58 47.46-20.8 48.72-23.73 49.97-26.66 52.08-28.77 54.2-30.88 57.13-32.14 60.06-33.4 63.28-33.4 66.5-33.4 69.43-32.14 72.36-30.88 74.47-28.77 76.58-26.66 77.84-23.73 79.1-20.8 79.1-17.58 79.1-14.36 77.84-11.43 76.58-8.5 74.47-6.38 72.36-4.27 69.43-3.02 66.5-1.76 63.28-1.76 60.06-1.76 57.13-3.02 54.2-4.27 52.08-6.38 49.97-8.5 48.72-11.43ZM47.09-24.4Q45.7-21.14 45.7-17.58 45.7-14.01 47.09-10.75 48.48-7.5 50.84-5.14 53.2-2.78 56.46-1.39 59.71 0 63.28 0 66.84 0 70.1-1.39 73.36-2.78 75.72-5.14 78.07-7.5 79.47-10.75 80.86-14.01 80.86-17.58 80.86-21.14 79.47-24.4 78.07-27.66 75.72-30.02 73.36-32.37 70.1-33.76 66.84-35.16 63.28-35.16 59.71-35.16 56.46-33.76 53.2-32.37 50.84-30.02 48.48-27.66 47.09-24.4ZM45.48-10.07Q43.94-13.65 43.94-17.58 43.94-21.51 45.48-25.09 47.02-28.66 49.61-31.25 52.19-33.84 55.77-35.38 59.35-36.91 63.28-36.91 67.21-36.91 70.79-35.38 74.36-33.84 76.95-31.25 79.54-28.66 81.08-25.09 82.61-21.51 82.61-17.58 82.61-13.65 81.08-10.07 79.54-6.49 76.95-3.91 74.36-1.32 70.79 0.22 67.21 1.76 63.28 1.76 59.35 1.76 55.77 0.22 52.19-1.32 49.61-3.91 47.02-6.49 45.48-10.07ZM114.28-35.16L114.28-14.18 112.52-17.38 112.52-35.16 114.28-35.16ZM117.79-35.16L117.79-8.11 116.04-11.08 116.04-35.16 117.79-35.16ZM93.57 0L93.57-20.97 95.33-17.77 95.33 0 93.57 0ZM90.06 0L90.06-27.29 91.82-24.07 91.82 0 90.06 0ZM111.03 0L90.67-35.16 92.72-35.16 113.08 0 111.03 0ZM115.13 0L94.82-35.16 96.89-35.16 117.23 0 115.13 0ZM119.23 0L98.95-35.16 101-35.16 119.55-3.05 119.55-35.16 121.31-35.16 121.31 0 119.23 0ZM106.9 0L88.3-32.13 88.3 0 86.54 0 86.54-35.16 88.64-35.16 108.93 0 106.9 0ZM153.63-35.16L153.63-14.18 151.87-17.38 151.87-35.16 153.63-35.16ZM157.15-35.16L157.15-8.11 155.39-11.08 155.39-35.16 157.15-35.16ZM132.93 0L132.93-20.97 134.68-17.77 134.68 0 132.93 0ZM129.41 0L129.41-27.29 131.17-24.07 131.17 0 129.41 0ZM150.38 0L130.02-35.16 132.07-35.16 152.43 0 150.38 0ZM154.48 0L134.17-35.16 136.25-35.16 156.58 0 154.48 0ZM158.59 0L138.3-35.16 140.35-35.16 158.9-3.05 158.9-35.16 160.66-35.16 160.66 0 158.59 0ZM146.26 0L127.65-32.13 127.65 0 125.9 0 125.9-35.16 128-35.16 148.28 0 146.26 0ZM174.04-35.16L174.04 0 172.28 0 172.28-35.16 174.04-35.16ZM170.52-35.16L170.52 0 168.76 0 168.76-35.16 170.52-35.16ZM167.01-35.16L167.01 0 165.25 0 165.25-35.16 167.01-35.16ZM177.55-13.21L177.55-8.79 194.37-8.79 194.37-7.03 177.55-7.03 177.55-5.27 194.37-5.27 194.37-3.52 177.55-3.52 177.55-1.76 194.37-1.76 194.37 0 175.8 0 175.8-35.16 194.37-35.16 194.37-33.4 177.55-33.4 177.55-31.64 194.37-31.64 194.37-29.88 177.55-29.88 177.55-28.13 194.37-28.13 194.37-26.37 177.55-26.37 177.55-22 193.4-22 193.4-20.24 177.55-20.24 177.55-18.48 193.4-18.48 193.4-16.72 177.55-16.72 177.55-14.97 193.4-14.97 193.4-13.21 177.55-13.21ZM223.89-23.05L223.89-23.05 222.47-21.97Q220.35-24.61 217-24.61L217-24.61Q214.1-24.61 212.04-22.55 209.97-20.48 209.97-17.58 209.97-14.67 212.04-12.61 214.1-10.55 217-10.55L217-10.55Q218.64-10.55 220.07-11.25 221.5-11.96 222.5-13.21L222.5-13.21 223.86-12.06Q222.64-10.52 220.84-9.66 219.03-8.79 217-8.79L217-8.79Q213.37-8.79 210.79-11.36 208.22-13.94 208.22-17.58 208.22-21.22 210.79-23.79 213.37-26.37 217-26.37L217-26.37Q219.05-26.37 220.86-25.48 222.67-24.58 223.89-23.05ZM226.62-25.24L226.62-25.24 225.23-24.17Q223.77-26.03 221.61-27.08 219.45-28.13 217-28.13L217-28.13Q212.63-28.13 209.55-25.02 206.46-21.92 206.46-17.58 206.46-13.23 209.55-10.13 212.63-7.03 217-7.03L217-7.03Q219.45-7.03 221.62-8.09 223.79-9.16 225.26-11.01L225.26-11.01 226.6-9.89Q224.89-7.74 222.38-6.51 219.86-5.27 217-5.27L217-5.27Q213.66-5.27 210.83-6.92 208-8.57 206.35-11.4 204.7-14.23 204.7-17.58 204.7-20.92 206.35-23.75 208-26.59 210.83-28.23 213.66-29.88 217-29.88L217-29.88Q219.86-29.88 222.39-28.65 224.91-27.42 226.62-25.24ZM229.38-27.44L229.38-27.44 228.01-26.34Q226.04-28.81 223.16-30.22 220.28-31.64 217-31.64L217-31.64Q214.15-31.64 211.55-30.53 208.95-29.42 207.06-27.53 205.16-25.63 204.05-23.03 202.94-20.43 202.94-17.58 202.94-14.72 204.05-12.12 205.16-9.52 207.06-7.63 208.95-5.74 211.55-4.63 214.15-3.52 217-3.52L217-3.52Q220.28-3.52 223.16-4.93 226.04-6.35 228.01-8.81L228.01-8.81 229.33-7.67Q227.11-4.91 223.89-3.33 220.67-1.76 217-1.76L217-1.76Q213.78-1.76 210.85-3.02 207.92-4.27 205.81-6.38 203.7-8.5 202.44-11.43 201.18-14.36 201.18-17.58 201.18-20.8 202.44-23.73 203.7-26.66 205.81-28.77 207.92-30.88 210.85-32.14 213.78-33.4 217-33.4L217-33.4Q220.69-33.4 223.93-31.81 227.16-30.22 229.38-27.44ZM232.12-29.64L232.12-29.64 230.7-28.59Q228.23-31.64 224.66-33.4 221.08-35.16 217-35.16L217-35.16Q213.44-35.16 210.18-33.76 206.92-32.37 204.57-30.02 202.21-27.66 200.82-24.4 199.43-21.14 199.43-17.58 199.43-14.01 200.82-10.75 202.21-7.5 204.57-5.14 206.92-2.78 210.18-1.39 213.44 0 217 0L217 0Q221.08 0 224.66-1.76 228.23-3.52 230.7-6.57L230.7-6.57 232.09-5.49Q229.38-2.12 225.44-0.18 221.5 1.76 217 1.76L217 1.76Q213.07 1.76 209.5 0.22 205.92-1.32 203.33-3.91 200.74-6.49 199.21-10.07 197.67-13.65 197.67-17.58 197.67-21.51 199.21-25.09 200.74-28.66 203.33-31.25 205.92-33.84 209.5-35.38 213.07-36.91 217-36.91L217-36.91Q221.5-36.91 225.45-34.97 229.41-33.03 232.12-29.64ZM241.66 0L241.66-25.42 243.42-25.42 243.42 0 241.66 0ZM261-33.4L234.63-33.4 234.63-35.16 261-35.16 261-33.4ZM261-29.88L234.63-29.88 234.63-31.64 261-31.64 261-29.88ZM261-26.37L234.63-26.37 234.63-28.13 261-28.13 261-26.37ZM252.21 0L252.21-25.42 253.96-25.42 253.96 0 252.21 0ZM248.69 0L248.69-25.42 250.45-25.42 250.45 0 248.69 0ZM245.18 0L245.18-25.42 246.93-25.42 246.93 0 245.18 0ZM275.4 0L275.4-35.16 277.16-35.16 277.16 0 275.4 0ZM271.88 0L271.88-35.16 273.64-35.16 273.64 0 271.88 0ZM268.37 0L268.37-35.16 270.12-35.16 270.12 0 268.37 0ZM264.85 0L264.85-35.16 266.61-35.16 266.61 0 264.85 0ZM309.48-35.16L309.48-14.18 307.72-17.38 307.72-35.16 309.48-35.16ZM312.99-35.16L312.99-8.11 311.23-11.08 311.23-35.16 312.99-35.16ZM288.77 0L288.77-20.97 290.53-17.77 290.53 0 288.77 0ZM285.26 0L285.26-27.29 287.02-24.07 287.02 0 285.26 0ZM306.23 0L285.87-35.16 287.92-35.16 308.28 0 306.23 0ZM310.33 0L290.02-35.16 292.09-35.16 312.43 0 310.33 0ZM314.43 0L294.15-35.16 296.2-35.16 314.75-3.05 314.75-35.16 316.51-35.16 316.51 0 314.43 0ZM302.1 0L283.5-32.13 283.5 0 281.74 0 281.74-35.16 283.84-35.16 304.13 0 302.1 0ZM345.83-12.62L345.83-17.82 347.58-17.82 347.58 0Q343.68 1.76 339.5 1.76L339.5 1.76Q335.57 1.76 332 0.22 328.42-1.32 325.83-3.91 323.24-6.49 321.71-10.07 320.17-13.65 320.17-17.58 320.17-21.51 321.71-25.09 323.24-28.66 325.83-31.25 328.42-33.84 332-35.38 335.57-36.91 339.5-36.91L339.5-36.91Q344-36.91 347.95-34.97 351.91-33.03 354.62-29.64L354.62-29.64 353.2-28.59Q350.73-31.64 347.16-33.4 343.58-35.16 339.5-35.16L339.5-35.16Q335.94-35.16 332.68-33.76 329.42-32.37 327.06-30.02 324.71-27.66 323.32-24.4 321.93-21.14 321.93-17.58 321.93-14.01 323.32-10.75 324.71-7.5 327.06-5.14 329.42-2.78 332.68-1.39 335.94 0 339.5 0L339.5 0Q342.8 0 345.83-1.17L345.83-1.17 345.83-2.98Q342.78-1.76 339.5-1.76L339.5-1.76Q336.28-1.76 333.35-3.02 330.42-4.27 328.31-6.38 326.2-8.5 324.94-11.43 323.68-14.36 323.68-17.58 323.68-20.8 324.94-23.73 326.2-26.66 328.31-28.77 330.42-30.88 333.35-32.14 336.28-33.4 339.5-33.4L339.5-33.4Q343.19-33.4 346.43-31.81 349.66-30.22 351.88-27.44L351.88-27.44 350.51-26.34Q348.54-28.81 345.66-30.22 342.78-31.64 339.5-31.64L339.5-31.64Q336.65-31.64 334.05-30.53 331.45-29.42 329.56-27.53 327.66-25.63 326.55-23.03 325.44-20.43 325.44-17.58 325.44-14.72 326.55-12.12 327.66-9.52 329.56-7.63 331.45-5.74 334.05-4.63 336.65-3.52 339.5-3.52L339.5-3.52Q342.87-3.52 345.83-4.88L345.83-4.88 345.83-6.69Q342.87-5.27 339.5-5.27L339.5-5.27Q336.16-5.27 333.33-6.92 330.5-8.57 328.85-11.4 327.2-14.23 327.2-17.58 327.2-20.92 328.85-23.75 330.5-26.59 333.33-28.23 336.16-29.88 339.5-29.88L339.5-29.88Q342.36-29.88 344.89-28.65 347.41-27.42 349.12-25.24L349.12-25.24 347.73-24.17Q346.27-26.03 344.11-27.08 341.95-28.13 339.5-28.13L339.5-28.13Q335.13-28.13 332.05-25.02 328.96-21.92 328.96-17.58 328.96-13.23 332.05-10.13 335.13-7.03 339.5-7.03L339.5-7.03Q342.92-7.03 345.83-8.69L345.83-8.69 345.83-10.47Q342.97-8.79 339.5-8.79L339.5-8.79Q335.87-8.79 333.29-11.36 330.71-13.94 330.71-17.58 330.71-21.22 333.29-23.79 335.87-26.37 339.5-26.37L339.5-26.37Q341.55-26.37 343.36-25.48 345.17-24.58 346.39-23.05L346.39-23.05 344.97-21.97Q342.85-24.61 339.5-24.61L339.5-24.61Q336.6-24.61 334.54-22.55 332.47-20.48 332.47-17.58 332.47-14.67 334.54-12.61 336.6-10.55 339.5-10.55L339.5-10.55Q343.24-10.55 345.83-12.62L345.83-12.62ZM356.37 0L356.37-17.82 358.13-17.82 358.13 0 356.37 0ZM352.86 0L352.86-17.82 354.62-17.82 354.62 0 352.86 0ZM349.34 0L349.34-17.82 351.1-17.82 351.1 0 349.34 0ZM381.54-17.38L381.54-19.14 391.74-19.14Q394.26-19.14 396.01-20.84 397.75-22.53 397.75-25.63L397.75-25.63Q397.75-27.95 395.92-29.8 394.09-31.64 391.74-31.64L391.74-31.64 376.66-31.64 376.66 0 374.9 0 374.9-33.4 391.74-33.4Q394.82-33.4 397.16-31.03 399.51-28.66 399.51-25.63L399.51-25.63Q399.51-21.9 397.24-19.64 394.97-17.38 391.74-17.38L391.74-17.38 381.54-17.38ZM381.54-13.87L381.54-15.63 391.74-15.63Q394.28-15.63 396.44-16.86 398.61-18.09 399.94-20.41 401.27-22.73 401.27-25.63L401.27-25.63Q401.27-29.39 398.4-32.28 395.53-35.16 391.74-35.16L391.74-35.16 373.14-35.16 373.14 0 371.38 0 371.38-36.91 391.74-36.91Q394.7-36.91 397.31-35.35 399.92-33.79 401.47-31.18 403.02-28.56 403.02-25.63L403.02-25.63Q403.02-22.31 401.46-19.59 399.9-16.87 397.32-15.37 394.75-13.87 391.74-13.87L391.74-13.87 381.54-13.87ZM381.54-10.35L381.54-12.11 391.74-12.11Q394.36-12.11 396.75-13.15 399.14-14.18 400.91-15.95 402.68-17.72 403.73-20.25 404.78-22.78 404.78-25.63L404.78-25.63Q404.78-29.05 403-32.07 401.22-35.08 398.2-36.88 395.19-38.67 391.74-38.67L391.74-38.67 369.63-38.67 369.63 0 367.87 0 367.87-40.43 391.74-40.43Q395.65-40.43 399.07-38.39 402.49-36.35 404.51-32.93 406.54-29.52 406.54-25.63L406.54-25.63Q406.54-22.17 405.34-19.25 404.15-16.33 402.12-14.4 400.09-12.48 397.41-11.41 394.72-10.35 391.74-10.35L391.74-10.35 381.54-10.35ZM380.17-28.13L380.17 0 378.41 0 378.41-29.88 391.74-29.88Q393.48-29.88 394.74-28.61 395.99-27.34 395.99-25.63L395.99-25.63Q395.99-20.9 391.74-20.9L391.74-20.9 381.54-20.9 381.54-22.66 391.74-22.66Q392.92-22.66 393.58-23.32 394.24-23.97 394.24-25.63L394.24-25.63Q394.24-26.71 393.51-27.42 392.79-28.13 391.74-28.13L391.74-28.13 380.17-28.13ZM419.18-35.16L419.18 0 417.43 0 417.43-35.16 419.18-35.16ZM415.67-35.16L415.67 0 413.91 0 413.91-35.16 415.67-35.16ZM412.15-35.16L412.15 0 410.39 0 410.39-35.16 412.15-35.16ZM422.7-13.21L422.7-8.79 439.52-8.79 439.52-7.03 422.7-7.03 422.7-5.27 439.52-5.27 439.52-3.52 422.7-3.52 422.7-1.76 439.52-1.76 439.52 0 420.94 0 420.94-35.16 439.52-35.16 439.52-33.4 422.7-33.4 422.7-31.64 439.52-31.64 439.52-29.88 422.7-29.88 422.7-28.13 439.52-28.13 439.52-26.37 422.7-26.37 422.7-22 438.54-22 438.54-20.24 422.7-20.24 422.7-18.48 438.54-18.48 438.54-16.72 422.7-16.72 422.7-14.97 438.54-14.97 438.54-13.21 422.7-13.21ZM457.18-22.55Q455.12-20.48 455.12-17.58 455.12-14.67 457.18-12.61 459.24-10.55 462.15-10.55 465.06-10.55 467.12-12.61 469.18-14.67 469.18-17.58 469.18-20.48 467.12-22.55 465.06-24.61 462.15-24.61 459.24-24.61 457.18-22.55ZM455.94-11.36Q453.36-13.94 453.36-17.58 453.36-21.22 455.94-23.79 458.51-26.37 462.15-26.37 465.79-26.37 468.36-23.79 470.94-21.22 470.94-17.58 470.94-13.94 468.36-11.36 465.79-8.79 462.15-8.79 458.51-8.79 455.94-11.36ZM454.69-25.02Q451.6-21.92 451.6-17.58 451.6-13.23 454.69-10.13 457.78-7.03 462.15-7.03 466.52-7.03 469.61-10.13 472.7-13.23 472.7-17.58 472.7-21.92 469.61-25.02 466.52-28.13 462.15-28.13 457.78-28.13 454.69-25.02ZM451.49-11.4Q449.85-14.23 449.85-17.58 449.85-20.92 451.49-23.75 453.14-26.59 455.97-28.23 458.81-29.88 462.15-29.88 465.49-29.88 468.33-28.23 471.16-26.59 472.81-23.75 474.45-20.92 474.45-17.58 474.45-14.23 472.81-11.4 471.16-8.57 468.33-6.92 465.49-5.27 462.15-5.27 458.81-5.27 455.97-6.92 453.14-8.57 451.49-11.4ZM449.2-23.03Q448.09-20.43 448.09-17.58 448.09-14.72 449.2-12.12 450.31-9.52 452.2-7.63 454.09-5.74 456.69-4.63 459.29-3.52 462.15-3.52 465.01-3.52 467.61-4.63 470.21-5.74 472.1-7.63 473.99-9.52 475.1-12.12 476.21-14.72 476.21-17.58 476.21-20.43 475.1-23.03 473.99-25.63 472.1-27.53 470.21-29.42 467.61-30.53 465.01-31.64 462.15-31.64 459.29-31.64 456.69-30.53 454.09-29.42 452.2-27.53 450.31-25.63 449.2-23.03ZM447.59-11.43Q446.33-14.36 446.33-17.58 446.33-20.8 447.59-23.73 448.84-26.66 450.96-28.77 453.07-30.88 456-32.14 458.93-33.4 462.15-33.4 465.37-33.4 468.3-32.14 471.23-30.88 473.34-28.77 475.46-26.66 476.71-23.73 477.97-20.8 477.97-17.58 477.97-14.36 476.71-11.43 475.46-8.5 473.34-6.38 471.23-4.27 468.3-3.02 465.37-1.76 462.15-1.76 458.93-1.76 456-3.02 453.07-4.27 450.96-6.38 448.84-8.5 447.59-11.43ZM445.96-24.4Q444.57-21.14 444.57-17.58 444.57-14.01 445.96-10.75 447.36-7.5 449.71-5.14 452.07-2.78 455.33-1.39 458.59 0 462.15 0 465.71 0 468.97-1.39 472.23-2.78 474.59-5.14 476.95-7.5 478.34-10.75 479.73-14.01 479.73-17.58 479.73-21.14 478.34-24.4 476.95-27.66 474.59-30.02 472.23-32.37 468.97-33.76 465.71-35.16 462.15-35.16 458.59-35.16 455.33-33.76 452.07-32.37 449.71-30.02 447.36-27.66 445.96-24.4ZM444.35-10.07Q442.81-13.65 442.81-17.58 442.81-21.51 444.35-25.09 445.89-28.66 448.48-31.25 451.07-33.84 454.64-35.38 458.22-36.91 462.15-36.91 466.08-36.91 469.66-35.38 473.23-33.84 475.82-31.25 478.41-28.66 479.95-25.09 481.49-21.51 481.49-17.58 481.49-13.65 479.95-10.07 478.41-6.49 475.82-3.91 473.23-1.32 469.66 0.22 466.08 1.76 462.15 1.76 458.22 1.76 454.64 0.22 451.07-1.32 448.48-3.91 445.89-6.49 444.35-10.07ZM499.06-14.79L499.06-16.55 506.51-16.55Q508.71-16.55 510.24-17.87 511.78-19.19 511.78-21.58L511.78-21.58Q511.78-23.44 510.17-24.9 508.56-26.37 506.51-26.37L506.51-26.37 494.2-26.37 494.2 0 492.45 0 492.45-28.13 506.51-28.13Q509.32-28.13 511.43-26.15 513.54-24.17 513.54-21.58L513.54-21.58Q513.54-18.48 511.49-16.64 509.44-14.79 506.51-14.79L506.51-14.79 499.06-14.79ZM499.06-11.28L499.06-13.04 506.51-13.04Q510.12-13.04 512.71-15.43 515.3-17.82 515.3-21.58L515.3-21.58Q515.3-24.88 512.66-27.38 510.02-29.88 506.51-29.88L506.51-29.88 490.69-29.88 490.69 0 488.93 0 488.93-31.64 506.51-31.64Q510.76-31.64 513.91-28.63 517.05-25.61 517.05-21.58L517.05-21.58Q517.05-17.19 513.94-14.23 510.83-11.28 506.51-11.28L506.51-11.28 499.06-11.28ZM499.06-7.76L499.06-9.52 506.51-9.52Q509.8-9.52 512.62-11.08 515.44-12.65 517.13-15.43 518.81-18.21 518.81-21.58L518.81-21.58Q518.81-24.68 517.14-27.42 515.47-30.15 512.62-31.77 509.78-33.4 506.51-33.4L506.51-33.4 487.17-33.4 487.17 0 485.41 0 485.41-35.16 506.51-35.16Q509.29-35.16 511.89-34.06 514.49-32.96 516.4-31.12 518.3-29.27 519.44-26.77 520.57-24.27 520.57-21.58L520.57-21.58Q520.57-18.43 519.45-15.8 518.32-13.16 516.4-11.41 514.47-9.67 511.92-8.72 509.36-7.76 506.51-7.76L506.51-7.76 499.06-7.76ZM497.72-22.85L497.72 0 495.96 0 495.96-24.61 506.51-24.61Q507.95-24.61 508.99-23.72 510.02-22.83 510.02-21.58L510.02-21.58Q510.02-18.31 506.51-18.31L506.51-18.31 499.06-18.31 499.06-20.07 506.51-20.07Q508.27-20.07 508.27-21.58L508.27-21.58Q508.27-22.12 507.75-22.49 507.24-22.85 506.51-22.85L506.51-22.85 497.72-22.85ZM524.5 0L524.5-35.16 526.26-35.16 526.26 0 524.5 0ZM535.05 0L535.05-35.16 536.8-35.16 536.8-8.79 549.77-8.79 549.77-7.03 536.8-7.03 536.8-5.27 549.77-5.27 549.77-3.52 536.8-3.52 536.8-1.76 549.77-1.76 549.77 0 535.05 0ZM531.53 0L531.53-35.16 533.29-35.16 533.29 0 531.53 0ZM528.01 0L528.01-35.16 529.77-35.16 529.77 0 528.01 0ZM562.44-35.16L562.44 0 560.68 0 560.68-35.16 562.44-35.16ZM558.92-35.16L558.92 0 557.16 0 557.16-35.16 558.92-35.16ZM555.4-35.16L555.4 0 553.65 0 553.65-35.16 555.4-35.16ZM565.95-13.21L565.95-8.79 582.77-8.79 582.77-7.03 565.95-7.03 565.95-5.27 582.77-5.27 582.77-3.52 565.95-3.52 565.95-1.76 582.77-1.76 582.77 0 564.19 0 564.19-35.16 582.77-35.16 582.77-33.4 565.95-33.4 565.95-31.64 582.77-31.64 582.77-29.88 565.95-29.88 565.95-28.13 582.77-28.13 582.77-26.37 565.95-26.37 565.95-22 581.8-22 581.8-20.24 565.95-20.24 565.95-18.48 581.8-18.48 581.8-16.72 565.95-16.72 565.95-14.97 581.8-14.97 581.8-13.21 565.95-13.21Z" opacity="1" transform="matrix(1,0,0,1,0,0)" fill="#89939e" class="slogan-text-1" data-fill-palette-color="secondary" id="text-1"></path></svg></g></svg></g></svg></g></svg></g><g transform="matrix(1,0,0,1,255.31386345361352,0)"><svg viewBox="0 0 93.73558506356865 93.73558506356865" height="93.73558506356865" width="93.73558506356865"><g data-palette-color="#000000"><rect width="25.62105991737543" height="93.73558506356865" fill="#000000" stroke="transparent" data-fill-palette-color="accent" x="0" fill-opacity="1"></rect><rect width="25.62105991737543" height="93.73558506356865" fill="#000000" stroke="transparent" data-fill-palette-color="accent" x="31.24519502118955" fill-opacity="0.75"></rect><rect width="25.62105991737543" height="93.73558506356865" fill="#000000" stroke="transparent" data-fill-palette-color="accent" x="62.4903900423791" fill-opacity="0.5"></rect></g></svg></g></svg></g></svg></g><g><path d="M245.816 0c68.262 0 123.6 55.338 123.6 123.6 0 68.262-55.338 123.6-123.6 123.6-55.509 0-102.471-36.592-118.082-86.969h1.525c15.561 49.562 61.86 85.514 116.557 85.513 67.459 0 122.144-54.686 122.144-122.144 0-67.459-54.686-122.144-122.144-122.144-54.697 0-100.996 35.952-116.557 85.513l-1.525 0c15.611-50.378 62.573-86.969 118.082-86.969z" fill="#000000" stroke="transparent" data-fill-palette-color="tertiary"></path></g></svg></g><defs></defs></svg><rect width="395.52" height="247.2" fill="none" stroke="none" visibility="hidden"></rect></g></svg></g></svg>